<?xml version="1.0" encoding="UTF-8" standalone="no"?>
<!DOCTYPE svg PUBLIC "-//W3C//DTD SVG 1.1//EN"
 "http://www.w3.org/Graphics/SVG/1.1/DTD/svg11.dtd">
<!-- Generated by graphviz version 2.40.1 (20161225.0304)
 -->
<!-- Title: G Pages: 1 -->
<svg width="228pt" height="703pt"
 viewBox="0.00 0.00 328.00 1013.00" xmlns="http://www.w3.org/2000/svg" xmlns:xlink="http://www.w3.org/1999/xlink">
<g id="graph0" class="graph" transform="scale(.6944 .6944) rotate(0) translate(4 1009)">
<title>G</title>
<polygon fill="#ffffff" stroke="transparent" points="-4,4 -4,-1009 324,-1009 324,4 -4,4"/>
<g id="clust1" class="cluster">
<title>cluster_D_A</title>
<polygon fill="none" stroke="#000000" stroke-dasharray="5,2" points="8,-8 8,-960 312,-960 312,-8 8,-8"/>
<text text-anchor="middle" x="29.5" y="-944.8" font-family="Times,serif" font-size="14.00" fill="#000000">D_A</text>
</g>
<!-- 140676285494544 -->
<g id="node1" class="node">
<title>140676285494544</title>
<polygon fill="none" stroke="#000000" points="97.5,-968.5 97.5,-1004.5 222.5,-1004.5 222.5,-968.5 97.5,-968.5"/>
<text text-anchor="middle" x="160" y="-982.8" font-family="Times,serif" font-size="14.00" fill="#000000">input_3: InputLayer</text>
</g>
<!-- 140678974091856 -->
<g id="node2" class="node">
<title>140678974091856</title>
<polygon fill="none" stroke="#000000" points="97.5,-892.5 97.5,-928.5 222.5,-928.5 222.5,-892.5 97.5,-892.5"/>
<text text-anchor="middle" x="160" y="-906.8" font-family="Times,serif" font-size="14.00" fill="#000000">input_1: InputLayer</text>
</g>
<!-- 140676285494544&#45;&gt;140678974091856 -->
<g id="edge13" class="edge">
<title>140676285494544&#45;&gt;140678974091856</title>
<path fill="none" stroke="#000000" d="M160,-968.4891C160,-959.6566 160,-948.8099 160,-938.8965"/>
<polygon fill="#000000" stroke="#000000" points="163.5001,-938.645 160,-928.645 156.5001,-938.6451 163.5001,-938.645"/>
</g>
<!-- 140676571244112 -->
<g id="node3" class="node">
<title>140676571244112</title>
<polygon fill="none" stroke="#000000" points="105,-819.5 105,-855.5 215,-855.5 215,-819.5 105,-819.5"/>
<text text-anchor="middle" x="160" y="-833.8" font-family="Times,serif" font-size="14.00" fill="#000000">conv2d: Conv2D</text>
</g>
<!-- 140678974091856&#45;&gt;140676571244112 -->
<g id="edge1" class="edge">
<title>140678974091856&#45;&gt;140676571244112</title>
<path fill="none" stroke="#000000" d="M160,-892.4551C160,-884.3828 160,-874.6764 160,-865.6817"/>
<polygon fill="#000000" stroke="#000000" points="163.5001,-865.5903 160,-855.5904 156.5001,-865.5904 163.5001,-865.5903"/>
</g>
<!-- 140676562262416 -->
<g id="node4" class="node">
<title>140676562262416</title>
<polygon fill="none" stroke="#000000" points="27,-746.5 27,-782.5 293,-782.5 293,-746.5 27,-746.5"/>
<text text-anchor="middle" x="160" y="-760.8" font-family="Times,serif" font-size="14.00" fill="#000000">tf_op_layer_LeakyRelu: TensorFlowOpLayer</text>
</g>
<!-- 140676571244112&#45;&gt;140676562262416 -->
<g id="edge2" class="edge">
<title>140676571244112&#45;&gt;140676562262416</title>
<path fill="none" stroke="#000000" d="M160,-819.4551C160,-811.3828 160,-801.6764 160,-792.6817"/>
<polygon fill="#000000" stroke="#000000" points="163.5001,-792.5903 160,-782.5904 156.5001,-792.5904 163.5001,-792.5903"/>
</g>
<!-- 140676573709136 -->
<g id="node5" class="node">
<title>140676573709136</title>
<polygon fill="none" stroke="#000000" points="98.5,-673.5 98.5,-709.5 221.5,-709.5 221.5,-673.5 98.5,-673.5"/>
<text text-anchor="middle" x="160" y="-687.8" font-family="Times,serif" font-size="14.00" fill="#000000">conv2d_1: Conv2D</text>
</g>
<!-- 140676562262416&#45;&gt;140676573709136 -->
<g id="edge3" class="edge">
<title>140676562262416&#45;&gt;140676573709136</title>
<path fill="none" stroke="#000000" d="M160,-746.4551C160,-738.3828 160,-728.6764 160,-719.6817"/>
<polygon fill="#000000" stroke="#000000" points="163.5001,-719.5903 160,-709.5904 156.5001,-719.5904 163.5001,-719.5903"/>
</g>
<!-- 140676562140368 -->
<g id="node6" class="node">
<title>140676562140368</title>
<polygon fill="none" stroke="#000000" points="22.5,-600.5 22.5,-636.5 297.5,-636.5 297.5,-600.5 22.5,-600.5"/>
<text text-anchor="middle" x="160" y="-614.8" font-family="Times,serif" font-size="14.00" fill="#000000">instance_normalization: InstanceNormalization</text>
</g>
<!-- 140676573709136&#45;&gt;140676562140368 -->
<g id="edge4" class="edge">
<title>140676573709136&#45;&gt;140676562140368</title>
<path fill="none" stroke="#000000" d="M160,-673.4551C160,-665.3828 160,-655.6764 160,-646.6817"/>
<polygon fill="#000000" stroke="#000000" points="163.5001,-646.5903 160,-636.5904 156.5001,-646.5904 163.5001,-646.5903"/>
</g>
<!-- 140676285459472 -->
<g id="node7" class="node">
<title>140676285459472</title>
<polygon fill="none" stroke="#000000" points="20.5,-527.5 20.5,-563.5 299.5,-563.5 299.5,-527.5 20.5,-527.5"/>
<text text-anchor="middle" x="160" y="-541.8" font-family="Times,serif" font-size="14.00" fill="#000000">tf_op_layer_LeakyRelu_1: TensorFlowOpLayer</text>
</g>
<!-- 140676562140368&#45;&gt;140676285459472 -->
<g id="edge5" class="edge">
<title>140676562140368&#45;&gt;140676285459472</title>
<path fill="none" stroke="#000000" d="M160,-600.4551C160,-592.3828 160,-582.6764 160,-573.6817"/>
<polygon fill="#000000" stroke="#000000" points="163.5001,-573.5903 160,-563.5904 156.5001,-573.5904 163.5001,-573.5903"/>
</g>
<!-- 140676562263952 -->
<g id="node8" class="node">
<title>140676562263952</title>
<polygon fill="none" stroke="#000000" points="98.5,-454.5 98.5,-490.5 221.5,-490.5 221.5,-454.5 98.5,-454.5"/>
<text text-anchor="middle" x="160" y="-468.8" font-family="Times,serif" font-size="14.00" fill="#000000">conv2d_2: Conv2D</text>
</g>
<!-- 140676285459472&#45;&gt;140676562263952 -->
<g id="edge6" class="edge">
<title>140676285459472&#45;&gt;140676562263952</title>
<path fill="none" stroke="#000000" d="M160,-527.4551C160,-519.3828 160,-509.6764 160,-500.6817"/>
<polygon fill="#000000" stroke="#000000" points="163.5001,-500.5903 160,-490.5904 156.5001,-500.5904 163.5001,-500.5903"/>
</g>
<!-- 140676285089616 -->
<g id="node9" class="node">
<title>140676285089616</title>
<polygon fill="none" stroke="#000000" points="16,-381.5 16,-417.5 304,-417.5 304,-381.5 16,-381.5"/>
<text text-anchor="middle" x="160" y="-395.8" font-family="Times,serif" font-size="14.00" fill="#000000">instance_normalization_1: InstanceNormalization</text>
</g>
<!-- 140676562263952&#45;&gt;140676285089616 -->
<g id="edge7" class="edge">
<title>140676562263952&#45;&gt;140676285089616</title>
<path fill="none" stroke="#000000" d="M160,-454.4551C160,-446.3828 160,-436.6764 160,-427.6817"/>
<polygon fill="#000000" stroke="#000000" points="163.5001,-427.5903 160,-417.5904 156.5001,-427.5904 163.5001,-427.5903"/>
</g>
<!-- 140676285668880 -->
<g id="node10" class="node">
<title>140676285668880</title>
<polygon fill="none" stroke="#000000" points="20.5,-308.5 20.5,-344.5 299.5,-344.5 299.5,-308.5 20.5,-308.5"/>
<text text-anchor="middle" x="160" y="-322.8" font-family="Times,serif" font-size="14.00" fill="#000000">tf_op_layer_LeakyRelu_2: TensorFlowOpLayer</text>
</g>
<!-- 140676285089616&#45;&gt;140676285668880 -->
<g id="edge8" class="edge">
<title>140676285089616&#45;&gt;140676285668880</title>
<path fill="none" stroke="#000000" d="M160,-381.4551C160,-373.3828 160,-363.6764 160,-354.6817"/>
<polygon fill="#000000" stroke="#000000" points="163.5001,-354.5903 160,-344.5904 156.5001,-354.5904 163.5001,-354.5903"/>
</g>
<!-- 140676285564944 -->
<g id="node11" class="node">
<title>140676285564944</title>
<polygon fill="none" stroke="#000000" points="98.5,-235.5 98.5,-271.5 221.5,-271.5 221.5,-235.5 98.5,-235.5"/>
<text text-anchor="middle" x="160" y="-249.8" font-family="Times,serif" font-size="14.00" fill="#000000">conv2d_3: Conv2D</text>
</g>
<!-- 140676285668880&#45;&gt;140676285564944 -->
<g id="edge9" class="edge">
<title>140676285668880&#45;&gt;140676285564944</title>
<path fill="none" stroke="#000000" d="M160,-308.4551C160,-300.3828 160,-290.6764 160,-281.6817"/>
<polygon fill="#000000" stroke="#000000" points="163.5001,-281.5903 160,-271.5904 156.5001,-281.5904 163.5001,-281.5903"/>
</g>
<!-- 140676285084560 -->
<g id="node12" class="node">
<title>140676285084560</title>
<polygon fill="none" stroke="#000000" points="16,-162.5 16,-198.5 304,-198.5 304,-162.5 16,-162.5"/>
<text text-anchor="middle" x="160" y="-176.8" font-family="Times,serif" font-size="14.00" fill="#000000">instance_normalization_2: InstanceNormalization</text>
</g>
<!-- 140676285564944&#45;&gt;140676285084560 -->
<g id="edge10" class="edge">
<title>140676285564944&#45;&gt;140676285084560</title>
<path fill="none" stroke="#000000" d="M160,-235.4551C160,-227.3828 160,-217.6764 160,-208.6817"/>
<polygon fill="#000000" stroke="#000000" points="163.5001,-208.5903 160,-198.5904 156.5001,-208.5904 163.5001,-208.5903"/>
</g>
<!-- 140676285405520 -->
<g id="node13" class="node">
<title>140676285405520</title>
<polygon fill="none" stroke="#000000" points="20.5,-89.5 20.5,-125.5 299.5,-125.5 299.5,-89.5 20.5,-89.5"/>
<text text-anchor="middle" x="160" y="-103.8" font-family="Times,serif" font-size="14.00" fill="#000000">tf_op_layer_LeakyRelu_3: TensorFlowOpLayer</text>
</g>
<!-- 140676285084560&#45;&gt;140676285405520 -->
<g id="edge11" class="edge">
<title>140676285084560&#45;&gt;140676285405520</title>
<path fill="none" stroke="#000000" d="M160,-162.4551C160,-154.3828 160,-144.6764 160,-135.6817"/>
<polygon fill="#000000" stroke="#000000" points="163.5001,-135.5903 160,-125.5904 156.5001,-135.5904 163.5001,-135.5903"/>
</g>
<!-- 140676285665360 -->
<g id="node14" class="node">
<title>140676285665360</title>
<polygon fill="none" stroke="#000000" points="98.5,-16.5 98.5,-52.5 221.5,-52.5 221.5,-16.5 98.5,-16.5"/>
<text text-anchor="middle" x="160" y="-30.8" font-family="Times,serif" font-size="14.00" fill="#000000">conv2d_4: Conv2D</text>
</g>
<!-- 140676285405520&#45;&gt;140676285665360 -->
<g id="edge12" class="edge">
<title>140676285405520&#45;&gt;140676285665360</title>
<path fill="none" stroke="#000000" d="M160,-89.4551C160,-81.3828 160,-71.6764 160,-62.6817"/>
<polygon fill="#000000" stroke="#000000" points="163.5001,-62.5903 160,-52.5904 156.5001,-62.5904 163.5001,-62.5903"/>
</g>
</g>
</svg>
